<svg id="svg" version="1.1" xmlns="http://www.w3.org/2000/svg" xmlns:xlink="http://www.w3.org/1999/xlink" width="400" height="400" viewBox="0, 0, 400,400"><g id="svgg"><path id="path0" d="M79.071 35.462 C 78.244 36.289,78.983 37.723,81.600 40.372 C 83.140 41.931,84.400 43.371,84.400 43.572 C 84.400 43.774,85.660 45.214,87.200 46.772 C 88.740 48.331,90.000 49.772,90.000 49.976 C 90.000 50.179,91.440 51.799,93.200 53.576 C 94.960 55.352,96.400 56.976,96.400 57.184 C 96.400 57.392,98.515 59.702,101.100 62.318 C 103.685 64.933,106.008 67.417,106.263 67.837 C 106.517 68.256,106.936 68.551,107.193 68.490 C 107.449 68.430,107.548 68.560,107.413 68.780 C 107.160 69.189,142.173 104.400,142.832 104.400 C 143.032 104.400,147.117 108.315,151.909 113.100 C 156.701 117.885,161.492 122.513,162.556 123.385 C 163.619 124.257,164.290 125.037,164.045 125.118 C 163.800 125.200,163.600 125.488,163.600 125.758 C 163.600 126.028,163.285 126.598,162.900 127.025 C 162.515 127.451,161.945 128.295,161.632 128.900 C 161.320 129.505,160.915 130.000,160.732 130.000 C 160.550 130.000,160.400 130.236,160.400 130.525 C 160.400 130.813,160.085 131.398,159.700 131.825 C 159.315 132.251,158.745 133.095,158.432 133.700 C 158.120 134.305,157.715 134.800,157.532 134.800 C 157.350 134.800,157.200 135.120,157.200 135.512 C 157.200 135.903,156.840 136.483,156.400 136.800 C 155.960 137.117,155.600 137.631,155.600 137.941 C 155.600 138.252,155.284 138.797,154.897 139.153 C 154.511 139.509,153.940 140.295,153.630 140.900 C 153.319 141.505,152.915 142.000,152.732 142.000 C 152.550 142.000,152.400 142.236,152.400 142.525 C 152.400 142.813,152.085 143.398,151.700 143.825 C 151.315 144.251,150.745 145.095,150.432 145.700 C 150.120 146.305,149.715 146.800,149.532 146.800 C 149.350 146.800,149.200 147.025,149.199 147.300 C 149.199 147.575,148.659 148.430,148.000 149.200 C 147.341 149.970,146.801 150.825,146.801 151.100 C 146.800 151.375,146.650 151.600,146.468 151.600 C 146.285 151.600,145.881 152.095,145.570 152.700 C 145.260 153.305,144.689 154.091,144.303 154.447 C 143.916 154.803,143.600 155.348,143.600 155.659 C 143.600 155.969,143.240 156.483,142.800 156.800 C 142.360 157.117,142.000 157.562,141.999 157.788 C 141.999 158.015,141.459 158.830,140.800 159.600 C 140.141 160.370,139.601 161.185,139.601 161.412 C 139.600 161.638,139.240 162.083,138.800 162.400 C 138.360 162.717,138.000 163.209,138.000 163.492 C 138.000 163.775,137.460 164.572,136.800 165.263 C 136.140 165.954,135.600 166.722,135.600 166.971 C 135.600 167.220,135.240 167.683,134.800 168.000 C 134.360 168.317,134.000 168.809,134.000 169.092 C 134.000 169.375,133.460 170.172,132.800 170.863 C 132.140 171.554,131.600 172.322,131.600 172.571 C 131.600 172.820,131.240 173.283,130.800 173.600 C 130.360 173.917,130.000 174.362,129.999 174.588 C 129.999 174.815,129.459 175.630,128.800 176.400 C 128.141 177.170,127.601 177.937,127.601 178.104 C 127.600 178.271,127.060 178.972,126.400 179.663 C 125.740 180.354,125.200 181.074,125.200 181.263 C 125.200 181.452,124.660 182.172,124.000 182.863 C 123.340 183.554,122.800 184.274,122.800 184.463 C 122.800 184.652,122.260 185.372,121.600 186.063 C 120.940 186.754,120.400 187.474,120.400 187.663 C 120.400 187.852,119.860 188.572,119.200 189.263 C 118.540 189.954,118.000 190.690,118.000 190.899 C 118.000 191.108,117.460 191.783,116.800 192.400 C 116.140 193.017,115.600 193.681,115.600 193.876 C 115.600 194.072,114.880 195.028,114.000 196.000 C 113.120 196.972,112.400 197.928,112.400 198.124 C 112.400 198.319,111.860 198.983,111.200 199.600 C 110.540 200.217,110.000 200.881,110.000 201.076 C 110.000 201.272,109.280 202.228,108.400 203.200 C 107.520 204.172,106.800 205.128,106.800 205.324 C 106.800 205.519,106.260 206.183,105.600 206.800 C 104.940 207.417,104.400 208.097,104.400 208.312 C 104.400 208.527,103.680 209.445,102.800 210.352 C 101.920 211.259,101.200 212.149,101.200 212.330 C 101.200 212.511,100.300 213.622,99.200 214.800 C 98.100 215.978,97.200 217.104,97.200 217.302 C 97.200 217.500,96.480 218.354,95.600 219.200 C 94.720 220.046,94.000 220.910,94.000 221.120 C 94.000 221.331,93.324 222.200,92.498 223.052 C 91.672 223.903,90.553 225.230,90.011 226.000 C 89.469 226.770,88.384 228.030,87.600 228.800 C 86.816 229.570,85.734 230.830,85.197 231.600 C 84.659 232.370,83.225 233.991,82.010 235.201 C 80.794 236.412,79.272 238.108,78.627 238.971 C 77.982 239.833,75.282 242.721,72.627 245.387 C 69.972 248.054,66.606 251.578,65.147 253.218 C 61.452 257.371,54.657 264.213,53.426 265.020 C 51.905 266.016,52.012 267.600,53.600 267.600 C 54.260 267.600,54.800 267.420,54.800 267.200 C 54.800 266.980,55.160 266.800,55.600 266.800 C 56.040 266.800,56.400 266.620,56.400 266.400 C 56.400 266.180,56.745 266.000,57.167 266.000 C 57.588 266.000,57.993 265.865,58.067 265.700 C 58.234 265.324,60.364 264.025,61.300 263.729 C 61.685 263.607,62.000 263.348,62.000 263.153 C 62.000 262.959,62.278 262.800,62.617 262.800 C 62.956 262.800,63.620 262.440,64.092 262.000 C 64.564 261.560,65.187 261.200,65.475 261.200 C 65.764 261.200,66.000 261.020,66.000 260.800 C 66.000 260.580,66.360 260.400,66.800 260.400 C 67.240 260.400,67.600 260.241,67.600 260.047 C 67.600 259.852,67.915 259.593,68.300 259.471 C 68.985 259.254,71.204 257.996,71.600 257.600 C 71.996 257.204,74.215 255.946,74.900 255.729 C 75.285 255.607,75.600 255.348,75.600 255.153 C 75.600 254.959,75.836 254.800,76.125 254.800 C 76.413 254.800,77.036 254.440,77.508 254.000 C 77.980 253.560,78.644 253.200,78.983 253.200 C 79.322 253.200,79.600 253.020,79.600 252.800 C 79.600 252.580,79.836 252.400,80.125 252.400 C 80.413 252.400,81.036 252.040,81.508 251.600 C 81.980 251.160,82.562 250.800,82.800 250.800 C 83.038 250.800,83.620 250.440,84.092 250.000 C 84.564 249.560,85.187 249.200,85.475 249.200 C 85.764 249.200,86.000 249.020,86.000 248.800 C 86.000 248.580,86.236 248.400,86.525 248.400 C 86.813 248.400,87.398 248.085,87.825 247.700 C 88.251 247.315,89.095 246.745,89.700 246.432 C 90.305 246.120,90.800 245.715,90.800 245.532 C 90.800 245.350,91.078 245.200,91.417 245.200 C 91.756 245.200,92.420 244.840,92.892 244.400 C 93.364 243.960,93.987 243.600,94.275 243.600 C 94.564 243.600,94.800 243.420,94.800 243.200 C 94.800 242.980,95.036 242.800,95.325 242.800 C 95.613 242.800,96.198 242.485,96.625 242.100 C 97.051 241.715,97.895 241.145,98.500 240.832 C 99.105 240.520,99.600 240.115,99.600 239.932 C 99.600 239.750,99.836 239.600,100.125 239.600 C 100.413 239.600,100.998 239.285,101.425 238.900 C 101.851 238.515,102.695 237.945,103.300 237.632 C 103.905 237.320,104.400 236.915,104.400 236.732 C 104.400 236.550,104.636 236.400,104.925 236.400 C 105.213 236.400,105.836 236.040,106.308 235.600 C 106.780 235.160,107.309 234.800,107.483 234.799 C 107.657 234.799,108.430 234.259,109.200 233.600 C 109.970 232.941,110.785 232.401,111.012 232.401 C 111.238 232.400,111.683 232.040,112.000 231.600 C 112.317 231.160,112.857 230.800,113.200 230.800 C 113.543 230.800,114.083 230.440,114.400 230.000 C 114.717 229.560,115.162 229.200,115.388 229.199 C 115.615 229.199,116.430 228.659,117.200 228.000 C 117.970 227.341,118.785 226.801,119.012 226.801 C 119.238 226.800,119.683 226.440,120.000 226.000 C 120.317 225.560,120.780 225.200,121.029 225.200 C 121.278 225.200,122.046 224.660,122.737 224.000 C 123.428 223.340,124.129 222.800,124.296 222.799 C 124.463 222.799,125.230 222.259,126.000 221.600 C 126.770 220.941,127.537 220.401,127.704 220.401 C 127.871 220.400,128.572 219.860,129.263 219.200 C 129.954 218.540,130.674 218.000,130.863 218.000 C 131.052 218.000,131.772 217.460,132.463 216.800 C 133.154 216.140,133.874 215.600,134.063 215.600 C 134.252 215.600,134.972 215.060,135.663 214.400 C 136.354 213.740,137.090 213.200,137.299 213.200 C 137.508 213.200,138.183 212.660,138.800 212.000 C 139.417 211.340,140.081 210.800,140.276 210.800 C 140.472 210.800,141.428 210.080,142.400 209.200 C 143.372 208.320,144.328 207.600,144.524 207.600 C 144.719 207.600,145.383 207.060,146.000 206.400 C 146.617 205.740,147.287 205.200,147.490 205.200 C 147.693 205.200,148.822 204.300,150.000 203.200 C 151.178 202.100,152.307 201.200,152.510 201.200 C 152.713 201.200,153.356 200.698,153.940 200.085 C 154.523 199.471,155.630 198.527,156.400 197.987 C 157.170 197.446,158.497 196.328,159.348 195.502 C 160.200 194.676,161.069 194.000,161.280 194.000 C 161.490 194.000,162.324 193.319,163.131 192.487 C 163.939 191.655,165.230 190.536,166.000 190.000 C 166.770 189.464,168.030 188.384,168.800 187.600 C 169.570 186.816,170.830 185.735,171.600 185.198 C 172.370 184.661,173.810 183.402,174.800 182.400 C 175.790 181.398,177.230 180.135,178.000 179.593 C 178.770 179.051,180.500 177.509,181.845 176.166 C 183.190 174.823,184.982 173.201,185.827 172.562 C 186.671 171.923,190.580 168.205,194.514 164.300 C 202.548 156.323,201.954 156.676,203.931 158.713 C 204.739 159.545,206.030 160.664,206.800 161.200 C 207.570 161.736,208.830 162.816,209.600 163.600 C 210.370 164.384,211.630 165.464,212.400 166.000 C 213.170 166.536,214.461 167.655,215.269 168.487 C 216.076 169.319,216.904 170.000,217.108 170.000 C 217.311 170.000,218.613 171.080,220.000 172.400 C 221.387 173.720,222.689 174.800,222.892 174.800 C 223.096 174.800,223.954 175.520,224.800 176.400 C 225.646 177.280,226.500 178.000,226.698 178.000 C 226.896 178.000,228.022 178.900,229.200 180.000 C 230.378 181.100,231.507 182.000,231.710 182.000 C 231.913 182.000,232.556 182.502,233.140 183.115 C 233.723 183.729,234.830 184.672,235.600 185.211 C 236.370 185.750,237.522 186.688,238.159 187.296 C 238.797 187.903,239.472 188.400,239.659 188.400 C 239.846 188.400,240.741 189.120,241.648 190.000 C 242.555 190.880,243.473 191.600,243.688 191.600 C 243.903 191.600,244.583 192.140,245.200 192.800 C 245.817 193.460,246.481 194.000,246.676 194.000 C 246.872 194.000,247.828 194.720,248.800 195.600 C 249.772 196.480,250.712 197.200,250.888 197.200 C 251.063 197.200,251.772 197.740,252.463 198.400 C 253.154 199.060,253.890 199.600,254.099 199.600 C 254.308 199.600,254.983 200.140,255.600 200.800 C 256.217 201.460,256.937 202.000,257.200 202.000 C 257.463 202.000,258.183 202.540,258.800 203.200 C 259.417 203.860,260.137 204.400,260.400 204.400 C 260.663 204.400,261.383 204.940,262.000 205.600 C 262.617 206.260,263.337 206.800,263.600 206.800 C 263.863 206.800,264.583 207.340,265.200 208.000 C 265.817 208.660,266.520 209.200,266.764 209.200 C 267.008 209.200,267.772 209.740,268.463 210.400 C 269.154 211.060,269.874 211.600,270.063 211.600 C 270.252 211.600,270.972 212.140,271.663 212.800 C 272.354 213.460,273.122 214.000,273.371 214.000 C 273.620 214.000,274.083 214.360,274.400 214.800 C 274.717 215.240,275.162 215.600,275.388 215.601 C 275.615 215.601,276.430 216.141,277.200 216.800 C 277.970 217.459,278.737 217.999,278.904 217.999 C 279.071 218.000,279.772 218.540,280.463 219.200 C 281.154 219.860,281.922 220.400,282.171 220.400 C 282.420 220.400,282.883 220.760,283.200 221.200 C 283.517 221.640,283.962 222.000,284.188 222.001 C 284.415 222.001,285.230 222.541,286.000 223.200 C 286.770 223.859,287.585 224.399,287.812 224.399 C 288.038 224.400,288.483 224.760,288.800 225.200 C 289.117 225.640,289.609 226.000,289.892 226.000 C 290.175 226.000,290.972 226.540,291.663 227.200 C 292.354 227.860,293.162 228.400,293.459 228.400 C 293.757 228.400,294.000 228.550,294.000 228.732 C 294.000 228.915,294.495 229.319,295.100 229.630 C 295.705 229.940,296.491 230.511,296.847 230.897 C 297.203 231.284,297.653 231.600,297.847 231.601 C 298.041 231.601,298.830 232.141,299.600 232.800 C 300.370 233.459,301.225 233.999,301.500 233.999 C 301.775 234.000,302.000 234.150,302.000 234.332 C 302.000 234.515,302.495 234.920,303.100 235.232 C 303.705 235.545,304.549 236.115,304.975 236.500 C 305.402 236.885,305.947 237.200,306.187 237.200 C 306.427 237.200,306.883 237.560,307.200 238.000 C 307.517 238.440,308.057 238.800,308.400 238.800 C 308.743 238.800,309.283 239.160,309.600 239.600 C 309.917 240.040,310.457 240.400,310.800 240.400 C 311.143 240.400,311.683 240.760,312.000 241.200 C 312.317 241.640,312.857 242.000,313.200 242.000 C 313.543 242.000,314.083 242.360,314.400 242.800 C 314.717 243.240,315.257 243.600,315.600 243.600 C 315.943 243.600,316.483 243.960,316.800 244.400 C 317.117 244.840,317.657 245.200,318.000 245.200 C 318.343 245.200,318.883 245.560,319.200 246.000 C 319.517 246.440,320.097 246.800,320.488 246.800 C 320.880 246.800,321.200 246.950,321.200 247.132 C 321.200 247.315,321.695 247.720,322.300 248.032 C 322.905 248.345,323.749 248.915,324.175 249.300 C 324.602 249.685,325.104 250.000,325.292 250.000 C 325.480 250.000,326.020 250.360,326.492 250.800 C 326.964 251.240,327.587 251.600,327.875 251.600 C 328.164 251.600,328.400 251.780,328.400 252.000 C 328.400 252.220,328.636 252.400,328.925 252.400 C 329.213 252.400,329.836 252.760,330.308 253.200 C 330.780 253.640,331.404 254.000,331.695 254.000 C 331.986 254.000,332.483 254.360,332.800 254.800 C 333.117 255.240,333.614 255.600,333.905 255.600 C 334.196 255.600,334.820 255.960,335.292 256.400 C 335.764 256.840,336.387 257.200,336.675 257.200 C 336.964 257.200,337.200 257.380,337.200 257.600 C 337.200 257.820,337.436 258.000,337.725 258.000 C 338.013 258.000,338.636 258.360,339.108 258.800 C 339.580 259.240,340.162 259.600,340.400 259.600 C 340.638 259.600,341.220 259.960,341.692 260.400 C 342.164 260.840,342.787 261.200,343.075 261.200 C 343.364 261.200,343.600 261.359,343.600 261.553 C 343.600 261.748,343.915 262.007,344.300 262.129 C 344.985 262.346,347.204 263.604,347.600 264.000 C 347.996 264.396,350.215 265.654,350.900 265.871 C 351.285 265.993,351.600 266.252,351.600 266.447 C 351.600 266.641,352.140 266.800,352.800 266.800 C 355.488 266.800,354.452 265.471,341.778 252.653 C 335.064 245.863,329.082 239.655,328.485 238.857 C 327.888 238.060,326.046 236.056,324.392 234.404 C 322.738 232.752,320.943 230.770,320.403 230.000 C 319.864 229.230,318.602 227.790,317.600 226.800 C 316.598 225.810,315.338 224.370,314.800 223.600 C 314.262 222.830,312.962 221.357,311.911 220.326 C 310.860 219.295,310.000 218.278,310.000 218.066 C 310.000 217.854,309.143 216.805,308.095 215.735 C 307.047 214.665,305.742 213.162,305.197 212.395 C 304.651 211.628,303.528 210.303,302.702 209.452 C 301.876 208.600,301.200 207.745,301.200 207.552 C 301.200 207.359,300.480 206.459,299.600 205.552 C 298.720 204.645,298.000 203.745,298.000 203.552 C 298.000 203.359,297.280 202.459,296.400 201.552 C 295.520 200.645,294.800 199.745,294.800 199.552 C 294.800 199.359,294.080 198.459,293.200 197.552 C 292.320 196.645,291.600 195.727,291.600 195.512 C 291.600 195.297,291.060 194.617,290.400 194.000 C 289.740 193.383,289.200 192.719,289.200 192.524 C 289.200 192.328,288.480 191.372,287.600 190.400 C 286.720 189.428,286.000 188.488,286.000 188.312 C 286.000 188.137,285.460 187.428,284.800 186.737 C 284.140 186.046,283.600 185.310,283.600 185.101 C 283.600 184.892,283.060 184.217,282.400 183.600 C 281.740 182.983,281.200 182.308,281.200 182.099 C 281.200 181.890,280.660 181.154,280.000 180.463 C 279.340 179.772,278.800 179.052,278.800 178.863 C 278.800 178.674,278.260 177.954,277.600 177.263 C 276.940 176.572,276.400 175.871,276.399 175.704 C 276.399 175.537,275.859 174.770,275.200 174.000 C 274.541 173.230,274.001 172.463,274.001 172.296 C 274.000 172.129,273.460 171.428,272.800 170.737 C 272.140 170.046,271.600 169.278,271.600 169.029 C 271.600 168.780,271.240 168.317,270.800 168.000 C 270.360 167.683,270.000 167.220,270.000 166.971 C 270.000 166.722,269.460 165.954,268.800 165.263 C 268.140 164.572,267.600 163.871,267.599 163.704 C 267.599 163.537,267.059 162.770,266.400 162.000 C 265.741 161.230,265.201 160.415,265.201 160.188 C 265.200 159.962,264.840 159.517,264.400 159.200 C 263.960 158.883,263.600 158.438,263.599 158.212 C 263.599 157.985,263.059 157.170,262.400 156.400 C 261.741 155.630,261.201 154.815,261.201 154.588 C 261.200 154.362,260.840 153.917,260.400 153.600 C 259.960 153.283,259.600 152.838,259.599 152.612 C 259.599 152.385,259.059 151.570,258.400 150.800 C 257.741 150.030,257.201 149.241,257.201 149.047 C 257.200 148.853,256.884 148.403,256.497 148.047 C 256.111 147.691,255.540 146.905,255.230 146.300 C 254.919 145.695,254.515 145.200,254.332 145.200 C 254.150 145.200,254.000 144.975,253.999 144.700 C 253.999 144.425,253.459 143.570,252.800 142.800 C 252.141 142.030,251.601 141.241,251.601 141.047 C 251.600 140.853,251.284 140.403,250.897 140.047 C 250.511 139.691,249.940 138.905,249.630 138.300 C 249.319 137.695,248.915 137.200,248.732 137.200 C 248.550 137.200,248.400 136.975,248.399 136.700 C 248.399 136.425,247.859 135.570,247.200 134.800 C 246.541 134.030,246.001 133.175,246.001 132.900 C 246.000 132.625,245.850 132.400,245.668 132.400 C 245.485 132.400,245.081 131.905,244.770 131.300 C 244.460 130.695,243.889 129.909,243.503 129.553 C 243.116 129.197,242.800 128.678,242.800 128.400 C 242.800 128.122,242.485 127.601,242.100 127.243 C 240.057 125.342,240.136 125.055,243.696 121.461 C 249.454 115.647,252.603 112.231,252.500 111.910 C 252.445 111.740,252.625 111.645,252.900 111.700 C 253.175 111.755,253.355 111.575,253.300 111.300 C 253.245 111.025,253.397 110.845,253.637 110.900 C 253.878 110.955,254.283 110.655,254.537 110.232 C 254.792 109.810,260.921 103.531,268.157 96.280 C 276.296 88.124,281.331 82.784,281.357 82.280 C 281.381 81.833,281.630 81.420,281.910 81.363 C 282.191 81.306,282.236 81.352,282.010 81.463 C 281.785 81.575,281.600 81.860,281.600 82.095 C 281.600 82.331,281.956 82.202,282.391 81.809 C 282.825 81.415,283.082 80.933,282.961 80.737 C 282.840 80.541,282.951 80.430,283.207 80.490 C 283.464 80.551,283.883 80.255,284.137 79.833 C 284.392 79.412,287.891 75.759,291.914 71.717 C 295.936 67.675,299.118 64.190,298.984 63.974 C 298.850 63.757,298.951 63.630,299.207 63.690 C 299.464 63.751,299.883 63.455,300.137 63.033 C 300.392 62.611,302.811 60.038,305.513 57.316 C 308.215 54.593,310.317 52.189,310.183 51.973 C 310.050 51.757,310.151 51.630,310.407 51.690 C 310.664 51.751,311.083 51.456,311.337 51.037 C 311.592 50.617,313.735 48.313,316.100 45.916 C 318.465 43.520,320.400 41.374,320.400 41.148 C 320.400 40.922,321.120 40.046,322.000 39.200 C 323.949 37.327,324.082 36.400,322.400 36.400 C 321.740 36.400,321.200 36.580,321.200 36.800 C 321.200 37.020,320.964 37.200,320.675 37.200 C 320.387 37.200,319.764 37.560,319.292 38.000 C 318.820 38.440,318.280 38.800,318.092 38.800 C 317.904 38.800,317.393 39.115,316.955 39.500 C 316.517 39.885,315.763 40.425,315.280 40.700 C 314.796 40.975,314.004 41.425,313.520 41.700 C 313.037 41.975,312.283 42.515,311.845 42.900 C 311.407 43.285,310.828 43.600,310.558 43.600 C 310.288 43.600,310.007 43.735,309.933 43.900 C 309.766 44.276,307.636 45.575,306.700 45.871 C 306.315 45.993,306.000 46.252,306.000 46.447 C 306.000 46.641,305.640 46.800,305.200 46.800 C 304.760 46.800,304.400 46.980,304.400 47.200 C 304.400 47.420,304.119 47.600,303.776 47.600 C 303.433 47.600,303.267 47.784,303.406 48.010 C 303.545 48.235,303.503 48.370,303.311 48.310 C 302.895 48.179,299.058 50.070,298.867 50.500 C 298.793 50.665,298.403 50.800,298.000 50.800 C 297.597 50.800,297.207 50.935,297.133 51.100 C 296.852 51.732,274.674 62.808,273.700 62.803 C 273.425 62.801,273.200 62.980,273.200 63.200 C 273.200 63.420,272.840 63.600,272.400 63.600 C 271.960 63.600,271.600 63.780,271.600 64.000 C 271.600 64.220,271.328 64.400,270.995 64.400 C 270.662 64.400,270.077 64.557,269.695 64.750 C 266.720 66.248,265.447 66.800,264.962 66.800 C 264.653 66.800,264.400 66.980,264.400 67.200 C 264.400 67.420,264.040 67.600,263.600 67.600 C 263.160 67.600,262.800 67.780,262.800 68.000 C 262.800 68.220,262.528 68.400,262.195 68.400 C 261.862 68.400,261.232 68.580,260.795 68.800 C 260.358 69.020,259.642 69.380,259.205 69.600 C 258.768 69.820,258.138 70.000,257.805 70.000 C 257.472 70.000,257.200 70.180,257.200 70.400 C 257.200 70.620,256.928 70.800,256.595 70.800 C 256.262 70.800,255.632 70.980,255.195 71.200 C 254.758 71.420,254.042 71.780,253.605 72.000 C 253.168 72.220,252.538 72.400,252.205 72.400 C 251.872 72.400,251.600 72.580,251.600 72.800 C 251.600 73.020,251.328 73.200,250.995 73.200 C 250.662 73.200,250.032 73.380,249.595 73.600 C 249.158 73.820,248.442 74.180,248.005 74.400 C 247.568 74.620,246.938 74.800,246.605 74.800 C 246.272 74.800,246.000 74.980,246.000 75.200 C 246.000 75.420,245.561 75.600,245.024 75.600 C 244.487 75.600,243.936 75.780,243.800 76.000 C 243.664 76.220,243.203 76.400,242.776 76.400 C 242.349 76.400,242.000 76.580,242.000 76.800 C 242.000 77.020,241.728 77.200,241.395 77.200 C 241.062 77.200,240.477 77.359,240.095 77.553 C 239.379 77.917,237.754 78.611,236.000 79.300 C 235.450 79.516,234.687 79.852,234.305 80.047 C 233.923 80.241,233.338 80.400,233.005 80.400 C 232.672 80.400,232.400 80.580,232.400 80.800 C 232.400 81.020,231.961 81.200,231.424 81.200 C 230.887 81.200,230.336 81.380,230.200 81.600 C 230.064 81.820,229.603 82.000,229.176 82.000 C 228.749 82.000,228.400 82.180,228.400 82.400 C 228.400 82.620,227.961 82.800,227.424 82.800 C 226.887 82.800,226.336 82.980,226.200 83.200 C 226.064 83.420,225.603 83.600,225.176 83.600 C 224.749 83.600,224.400 83.780,224.400 84.000 C 224.400 84.220,224.038 84.400,223.595 84.400 C 223.152 84.400,222.477 84.559,222.095 84.753 C 221.379 85.117,219.754 85.811,218.000 86.500 C 217.450 86.716,216.687 87.052,216.305 87.247 C 215.923 87.441,215.248 87.600,214.805 87.600 C 214.362 87.600,214.000 87.780,214.000 88.000 C 214.000 88.220,213.561 88.400,213.024 88.400 C 212.487 88.400,211.936 88.580,211.800 88.800 C 211.664 89.020,211.203 89.200,210.776 89.200 C 210.349 89.200,210.000 89.380,210.000 89.600 C 210.000 89.820,209.561 90.000,209.024 90.000 C 208.487 90.000,207.936 90.180,207.800 90.400 C 207.664 90.620,207.124 90.800,206.600 90.800 C 206.076 90.800,205.536 90.980,205.400 91.200 C 205.264 91.420,204.803 91.600,204.376 91.600 C 203.949 91.600,203.600 91.780,203.600 92.000 C 203.600 92.220,202.880 92.400,202.000 92.400 C 201.120 92.400,200.400 92.220,200.400 92.000 C 200.400 91.780,199.860 91.600,199.200 91.600 C 198.540 91.600,198.000 91.420,198.000 91.200 C 198.000 90.980,197.651 90.800,197.224 90.800 C 196.797 90.800,196.336 90.620,196.200 90.400 C 196.064 90.180,195.524 90.000,195.000 90.000 C 194.476 90.000,193.936 89.820,193.800 89.600 C 193.664 89.380,193.113 89.200,192.576 89.200 C 192.039 89.200,191.600 89.020,191.600 88.800 C 191.600 88.580,191.251 88.400,190.824 88.400 C 190.397 88.400,189.936 88.220,189.800 88.000 C 189.664 87.780,189.113 87.600,188.576 87.600 C 188.039 87.600,187.600 87.420,187.600 87.200 C 187.600 86.980,187.238 86.800,186.795 86.800 C 186.352 86.800,185.632 86.620,185.195 86.400 C 184.758 86.180,184.042 85.820,183.605 85.600 C 183.168 85.380,182.448 85.200,182.005 85.200 C 181.562 85.200,181.200 85.020,181.200 84.800 C 181.200 84.580,180.851 84.400,180.424 84.400 C 179.997 84.400,179.536 84.220,179.400 84.000 C 179.264 83.780,178.713 83.600,178.176 83.600 C 177.639 83.600,177.200 83.420,177.200 83.200 C 177.200 82.980,176.851 82.800,176.424 82.800 C 175.997 82.800,175.536 82.620,175.400 82.400 C 175.264 82.180,174.801 82.000,174.371 82.000 C 173.941 82.000,173.277 81.841,172.895 81.647 C 172.513 81.452,171.750 81.118,171.200 80.903 C 170.650 80.689,169.418 80.128,168.462 79.657 C 167.506 79.186,166.381 78.800,165.962 78.800 C 165.543 78.800,165.200 78.620,165.200 78.400 C 165.200 78.180,164.851 78.000,164.424 78.000 C 163.997 78.000,163.536 77.820,163.400 77.600 C 163.264 77.380,162.713 77.200,162.176 77.200 C 161.639 77.200,161.200 77.020,161.200 76.800 C 161.200 76.580,160.928 76.400,160.595 76.400 C 160.262 76.400,159.677 76.241,159.295 76.047 C 158.913 75.852,158.150 75.516,157.600 75.300 C 155.846 74.611,154.221 73.917,153.505 73.553 C 153.123 73.359,152.538 73.200,152.205 73.200 C 151.872 73.200,151.600 73.020,151.600 72.800 C 151.600 72.580,151.328 72.400,150.995 72.400 C 150.407 72.400,149.982 72.233,148.105 71.262 C 147.613 71.008,146.938 70.800,146.605 70.800 C 146.272 70.800,146.000 70.620,146.000 70.400 C 146.000 70.180,145.728 70.000,145.395 70.000 C 145.062 70.000,144.432 69.820,143.995 69.600 C 143.558 69.380,142.842 69.020,142.405 68.800 C 141.968 68.580,141.338 68.400,141.005 68.400 C 140.672 68.400,140.400 68.220,140.400 68.000 C 140.400 67.780,140.147 67.600,139.838 67.600 C 139.307 67.600,138.707 67.338,134.462 65.253 C 133.506 64.784,132.471 64.400,132.162 64.400 C 131.853 64.400,131.600 64.220,131.600 64.000 C 131.600 63.780,131.361 63.600,131.068 63.600 C 130.775 63.600,129.664 63.159,128.598 62.619 C 127.533 62.080,126.485 61.748,126.269 61.881 C 126.053 62.014,125.981 61.954,126.109 61.747 C 126.237 61.539,125.770 61.133,125.071 60.845 C 121.408 59.331,107.879 52.379,107.667 51.900 C 107.593 51.735,107.203 51.600,106.800 51.600 C 106.397 51.600,106.007 51.465,105.933 51.300 C 105.742 50.870,101.905 48.979,101.489 49.110 C 101.297 49.170,101.255 49.035,101.394 48.810 C 101.533 48.584,101.367 48.400,101.024 48.400 C 100.681 48.400,100.400 48.220,100.400 48.000 C 100.400 47.780,100.040 47.600,99.600 47.600 C 99.160 47.600,98.800 47.464,98.800 47.298 C 98.800 46.935,96.340 45.779,95.870 45.921 C 95.689 45.975,95.655 45.835,95.794 45.610 C 95.933 45.384,95.767 45.200,95.424 45.200 C 95.081 45.200,94.800 45.041,94.800 44.847 C 94.800 44.652,94.485 44.393,94.100 44.271 C 93.413 44.054,91.194 42.795,90.800 42.399 C 90.690 42.289,90.105 41.944,89.500 41.632 C 88.895 41.320,88.400 40.915,88.400 40.732 C 88.400 40.550,88.164 40.400,87.875 40.400 C 87.587 40.400,87.002 40.085,86.575 39.700 C 86.149 39.315,85.305 38.745,84.700 38.432 C 84.095 38.120,83.600 37.715,83.600 37.532 C 83.600 37.350,83.364 37.200,83.075 37.200 C 82.787 37.200,82.188 36.862,81.745 36.449 C 80.802 35.571,79.458 35.075,79.071 35.462 M142.800 103.694 C 142.800 103.874,141.990 103.211,141.000 102.221 C 140.010 101.231,139.200 100.289,139.200 100.127 C 139.200 99.966,140.010 100.628,141.000 101.600 C 141.990 102.572,142.800 103.514,142.800 103.694 M9.200 299.813 C 9.200 300.892,10.789 302.710,13.200 304.388 C 13.970 304.924,14.870 305.649,15.200 306.000 C 15.530 306.351,16.430 307.072,17.200 307.604 C 17.970 308.135,19.050 309.033,19.600 309.600 C 20.150 310.167,21.230 311.065,22.000 311.596 C 22.770 312.128,23.670 312.849,24.000 313.200 C 24.330 313.551,25.230 314.275,26.000 314.810 C 26.770 315.345,27.801 316.179,28.291 316.664 C 28.781 317.149,29.861 318.051,30.691 318.668 C 31.521 319.286,32.470 320.072,32.800 320.415 C 33.130 320.757,34.030 321.475,34.800 322.010 C 35.570 322.545,36.601 323.379,37.091 323.864 C 37.581 324.349,38.661 325.251,39.491 325.868 C 40.321 326.486,41.270 327.272,41.600 327.615 C 41.930 327.957,42.830 328.673,43.600 329.206 C 45.418 330.462,46.000 331.041,46.000 331.590 C 46.000 332.128,44.188 334.000,43.666 334.000 C 43.463 334.000,42.555 334.720,41.648 335.600 C 40.741 336.480,39.838 337.200,39.640 337.200 C 39.443 337.200,38.362 338.100,37.239 339.200 C 36.115 340.300,35.039 341.200,34.846 341.200 C 34.654 341.200,33.755 341.920,32.848 342.800 C 31.941 343.680,31.038 344.400,30.840 344.400 C 30.643 344.400,29.562 345.300,28.439 346.400 C 27.315 347.500,26.203 348.400,25.967 348.400 C 25.730 348.400,24.846 349.120,24.000 350.000 C 23.154 350.880,22.287 351.600,22.072 351.600 C 21.857 351.600,20.762 352.500,19.639 353.600 C 18.515 354.700,17.403 355.600,17.167 355.600 C 16.930 355.600,16.046 356.320,15.200 357.200 C 14.354 358.080,13.497 358.800,13.295 358.800 C 12.689 358.800,9.200 362.276,9.200 362.880 C 9.200 364.257,10.056 364.400,18.285 364.400 C 25.962 364.400,27.452 364.220,28.400 363.181 C 28.510 363.060,29.230 362.521,30.000 361.983 C 30.770 361.444,32.097 360.328,32.948 359.502 C 33.800 358.676,34.654 358.000,34.847 358.000 C 35.040 358.000,35.963 357.280,36.897 356.400 C 37.831 355.520,38.749 354.800,38.937 354.800 C 39.125 354.800,39.756 354.298,40.340 353.685 C 40.923 353.071,42.030 352.128,42.800 351.589 C 43.570 351.050,44.722 350.112,45.359 349.504 C 45.997 348.897,46.683 348.400,46.883 348.400 C 47.083 348.400,47.119 348.192,46.962 347.938 C 46.791 347.662,46.851 347.585,47.112 347.746 C 47.352 347.894,47.965 347.603,48.474 347.099 C 48.983 346.595,50.030 345.740,50.800 345.200 C 51.570 344.660,52.600 343.822,53.089 343.338 C 53.578 342.854,54.523 342.136,55.189 341.743 C 55.855 341.349,56.400 340.886,56.400 340.714 C 56.400 340.541,56.760 340.400,57.200 340.400 C 57.640 340.400,58.000 340.580,58.000 340.800 C 58.000 341.020,58.225 341.202,58.500 341.204 C 58.775 341.207,59.875 342.015,60.944 343.001 C 62.013 343.987,63.075 344.677,63.305 344.535 C 63.549 344.384,63.604 344.469,63.438 344.738 C 63.281 344.992,63.308 345.200,63.498 345.200 C 63.688 345.200,64.529 345.828,65.367 346.596 C 66.205 347.363,67.078 347.875,67.307 347.734 C 67.549 347.584,67.604 347.670,67.438 347.938 C 67.281 348.192,67.317 348.400,67.517 348.400 C 67.717 348.400,68.403 348.897,69.041 349.504 C 69.678 350.112,70.830 351.050,71.600 351.589 C 72.370 352.128,73.477 353.071,74.060 353.685 C 74.644 354.298,75.275 354.800,75.463 354.800 C 75.651 354.800,76.523 355.476,77.402 356.303 C 78.281 357.130,79.630 358.248,80.400 358.788 C 81.170 359.327,82.277 360.271,82.860 360.885 C 83.444 361.498,84.074 362.000,84.260 362.001 C 84.447 362.001,85.230 362.541,86.000 363.200 L 87.400 364.398 96.000 364.386 C 102.518 364.377,104.769 364.246,105.300 363.843 C 106.312 363.075,106.161 362.218,104.900 361.568 C 104.295 361.255,103.139 360.325,102.331 359.500 C 101.524 358.675,100.670 358.000,100.433 358.000 C 100.197 358.000,99.085 357.100,97.961 356.000 C 96.838 354.900,95.757 354.000,95.560 354.000 C 95.362 354.000,94.459 353.280,93.552 352.400 C 92.645 351.520,91.746 350.800,91.554 350.800 C 91.361 350.800,90.285 349.900,89.161 348.800 C 88.038 347.700,86.957 346.800,86.760 346.800 C 86.562 346.800,85.659 346.080,84.752 345.200 C 83.845 344.320,82.931 343.600,82.720 343.600 C 82.510 343.600,81.646 342.880,80.800 342.000 C 79.954 341.120,79.070 340.400,78.833 340.400 C 78.597 340.400,77.485 339.500,76.361 338.400 C 75.238 337.300,74.143 336.400,73.928 336.400 C 73.713 336.400,72.846 335.680,72.000 334.800 C 71.154 333.920,70.256 333.200,70.003 333.200 C 69.410 333.200,68.400 332.192,68.400 331.600 C 68.400 331.071,69.387 330.000,69.874 330.000 C 70.056 330.000,70.923 329.324,71.802 328.497 C 72.681 327.670,74.030 326.554,74.800 326.016 C 75.570 325.478,76.470 324.751,76.800 324.400 C 77.130 324.049,78.030 323.329,78.800 322.800 C 79.570 322.271,80.470 321.557,80.800 321.215 C 81.130 320.872,82.079 320.086,82.909 319.468 C 83.739 318.851,84.856 317.908,85.391 317.373 C 85.926 316.838,86.508 316.400,86.684 316.400 C 86.860 316.400,87.723 315.724,88.602 314.897 C 89.481 314.070,90.830 312.954,91.600 312.416 C 92.370 311.878,93.270 311.151,93.600 310.800 C 93.930 310.449,94.830 309.728,95.600 309.196 C 96.370 308.665,97.477 307.729,98.060 307.115 C 98.644 306.502,99.290 306.000,99.497 306.000 C 99.704 306.000,100.733 305.187,101.784 304.194 C 102.836 303.201,104.215 302.082,104.848 301.708 C 105.679 301.217,106.000 300.717,106.000 299.914 L 106.000 298.800 96.400 298.800 C 90.267 298.800,86.800 298.944,86.800 299.200 C 86.800 299.420,86.548 299.600,86.241 299.600 C 85.933 299.600,84.762 300.500,83.639 301.600 C 82.515 302.700,81.403 303.600,81.167 303.600 C 80.930 303.600,80.046 304.320,79.200 305.200 C 78.354 306.080,77.490 306.800,77.280 306.800 C 77.069 306.800,76.155 307.520,75.248 308.400 C 74.341 309.280,73.438 310.000,73.240 310.000 C 73.043 310.000,71.962 310.900,70.839 312.000 C 69.715 313.100,68.639 314.000,68.446 314.000 C 68.254 314.000,67.355 314.720,66.448 315.600 C 65.541 316.480,64.638 317.200,64.440 317.200 C 64.243 317.200,63.162 318.100,62.039 319.200 C 60.915 320.300,59.767 321.200,59.486 321.200 C 59.206 321.200,58.717 321.560,58.400 322.000 C 57.605 323.103,56.911 323.004,55.600 321.600 C 54.983 320.940,54.267 320.400,54.008 320.400 C 53.749 320.400,52.846 319.680,52.000 318.800 C 51.154 317.920,50.270 317.200,50.033 317.200 C 49.797 317.200,48.685 316.300,47.561 315.200 C 46.438 314.100,45.357 313.200,45.160 313.200 C 44.962 313.200,44.059 312.480,43.152 311.600 C 42.245 310.720,41.345 310.000,41.152 310.000 C 40.959 310.000,40.059 309.280,39.152 308.400 C 38.245 307.520,37.331 306.800,37.120 306.800 C 36.910 306.800,36.046 306.080,35.200 305.200 C 34.354 304.320,33.454 303.600,33.200 303.600 C 32.946 303.600,32.046 302.880,31.200 302.000 C 30.354 301.120,29.418 300.400,29.120 300.400 C 28.821 300.400,28.317 300.040,28.000 299.600 C 27.452 298.840,26.965 298.800,18.312 298.800 L 9.200 298.800 9.200 299.813 M118.905 299.908 C 118.413 300.508,118.008 301.137,118.005 301.304 C 118.002 301.471,117.460 302.172,116.800 302.863 C 116.140 303.554,115.600 304.362,115.600 304.659 C 115.600 304.957,115.420 305.200,115.200 305.200 C 114.980 305.200,114.800 305.560,114.800 306.000 C 114.800 306.440,114.620 306.800,114.400 306.800 C 114.180 306.800,114.000 307.160,114.000 307.600 C 114.000 308.040,113.820 308.400,113.600 308.400 C 113.380 308.400,113.200 308.940,113.200 309.600 C 113.200 310.260,113.020 310.800,112.800 310.800 C 112.580 310.800,112.400 311.340,112.400 312.000 C 112.400 312.660,112.220 313.200,112.000 313.200 C 111.780 313.200,111.600 313.740,111.600 314.400 C 111.600 315.060,111.420 315.600,111.200 315.600 C 110.980 315.600,110.800 316.320,110.800 317.200 C 110.800 318.080,110.620 318.800,110.400 318.800 C 110.180 318.800,110.000 319.700,110.000 320.800 C 110.000 321.900,109.820 322.800,109.600 322.800 C 109.380 322.800,109.200 323.340,109.200 324.000 L 109.200 325.200 104.400 325.200 L 99.600 325.200 99.600 331.600 L 99.600 338.000 104.400 338.000 C 108.933 338.000,109.200 338.044,109.200 338.800 C 109.200 339.240,109.380 339.600,109.600 339.600 C 109.822 339.600,110.000 340.667,110.000 342.000 C 110.000 343.333,110.178 344.400,110.400 344.400 C 110.620 344.400,110.800 345.120,110.800 346.000 C 110.800 346.880,110.980 347.600,111.200 347.600 C 111.420 347.600,111.600 348.129,111.600 348.776 C 111.600 349.423,111.780 350.064,112.000 350.200 C 112.220 350.336,112.400 350.887,112.400 351.424 C 112.400 351.961,112.580 352.400,112.800 352.400 C 113.020 352.400,113.200 352.760,113.200 353.200 C 113.200 353.640,113.380 354.000,113.600 354.000 C 113.820 354.000,114.000 354.360,114.000 354.800 C 114.000 355.240,114.180 355.600,114.400 355.600 C 114.620 355.600,114.800 355.960,114.800 356.400 C 114.800 356.840,114.980 357.200,115.200 357.200 C 115.420 357.200,115.600 357.560,115.600 358.000 C 115.600 358.440,115.750 358.800,115.932 358.800 C 116.115 358.800,116.520 359.291,116.832 359.891 C 117.145 360.491,117.992 361.616,118.716 362.391 L 120.031 363.800 152.334 363.800 L 184.636 363.800 185.618 362.800 C 186.158 362.250,186.855 361.305,187.168 360.700 C 187.480 360.095,187.885 359.600,188.068 359.600 C 188.250 359.600,188.400 359.364,188.400 359.075 C 188.400 358.787,188.760 358.164,189.200 357.692 C 189.640 357.220,190.000 356.556,190.000 356.217 C 190.000 355.878,190.180 355.600,190.400 355.600 C 190.620 355.600,190.800 355.161,190.800 354.624 C 190.800 354.087,190.980 353.536,191.200 353.400 C 191.420 353.264,191.600 352.803,191.600 352.376 C 191.600 351.949,191.780 351.600,192.000 351.600 C 192.220 351.600,192.400 351.071,192.400 350.424 C 192.400 349.777,192.580 349.136,192.800 349.000 C 193.020 348.864,193.200 348.133,193.200 347.376 C 193.200 346.619,193.380 346.000,193.600 346.000 C 193.820 346.000,194.000 345.291,194.000 344.424 C 194.000 343.557,194.180 342.736,194.400 342.600 C 195.677 341.811,194.627 334.800,193.232 334.800 C 191.928 334.800,190.769 333.013,190.855 331.134 C 190.902 330.092,191.075 329.323,191.238 329.424 C 191.402 329.525,191.807 329.336,192.139 329.004 C 192.471 328.672,192.949 328.400,193.200 328.400 C 194.389 328.400,194.800 327.226,194.800 323.829 C 194.800 321.810,194.636 320.400,194.400 320.400 C 194.180 320.400,194.000 319.500,194.000 318.400 C 194.000 317.300,193.820 316.400,193.600 316.400 C 193.380 316.400,193.200 315.860,193.200 315.200 C 193.200 314.540,193.020 314.000,192.800 314.000 C 192.580 314.000,192.400 313.460,192.400 312.800 C 192.400 312.140,192.220 311.600,192.000 311.600 C 191.780 311.600,191.600 311.060,191.600 310.400 C 191.600 309.740,191.420 309.200,191.200 309.200 C 190.980 309.200,190.800 308.840,190.800 308.400 C 190.800 307.960,190.620 307.600,190.400 307.600 C 190.180 307.600,190.000 307.364,190.000 307.075 C 190.000 306.787,189.640 306.164,189.200 305.692 C 188.760 305.220,188.400 304.596,188.400 304.305 C 188.400 304.014,188.040 303.517,187.600 303.200 C 187.160 302.883,186.800 302.387,186.800 302.098 C 186.800 301.810,186.176 300.949,185.413 300.187 L 184.027 298.800 151.913 298.808 L 119.800 298.815 118.905 299.908 M214.100 300.620 C 213.165 301.589,212.400 302.616,212.400 302.902 C 212.400 303.189,212.040 303.683,211.600 304.000 C 211.160 304.317,210.800 304.814,210.800 305.105 C 210.800 305.396,210.440 306.020,210.000 306.492 C 209.560 306.964,209.200 307.587,209.200 307.875 C 209.200 308.164,209.020 308.400,208.800 308.400 C 208.580 308.400,208.400 308.749,208.400 309.176 C 208.400 309.603,208.220 310.064,208.000 310.200 C 207.780 310.336,207.600 310.887,207.600 311.424 C 207.600 311.961,207.420 312.400,207.200 312.400 C 206.980 312.400,206.800 312.940,206.800 313.600 C 206.800 314.260,206.620 314.800,206.400 314.800 C 206.180 314.800,206.000 315.509,206.000 316.376 C 206.000 317.243,205.820 318.064,205.600 318.200 C 205.380 318.336,205.200 319.787,205.200 321.424 C 205.200 323.141,205.031 324.400,204.800 324.400 C 204.552 324.400,204.400 326.525,204.400 329.976 C 204.400 333.263,204.564 335.654,204.800 335.800 C 205.020 335.936,205.200 337.556,205.200 339.400 C 205.200 341.244,205.380 342.864,205.600 343.000 C 205.820 343.136,206.000 344.047,206.000 345.024 C 206.000 346.001,206.180 346.800,206.400 346.800 C 206.620 346.800,206.800 347.520,206.800 348.400 C 206.800 349.280,206.980 350.000,207.200 350.000 C 207.420 350.000,207.600 350.439,207.600 350.976 C 207.600 351.513,207.780 352.064,208.000 352.200 C 208.220 352.336,208.400 352.797,208.400 353.224 C 208.400 353.651,208.580 354.000,208.800 354.000 C 209.020 354.000,209.200 354.360,209.200 354.800 C 209.200 355.240,209.380 355.600,209.600 355.600 C 209.820 355.600,210.000 355.920,210.000 356.312 C 210.000 356.703,210.360 357.283,210.800 357.600 C 211.240 357.917,211.600 358.497,211.600 358.888 C 211.600 359.280,211.750 359.600,211.932 359.600 C 212.115 359.600,212.520 360.095,212.832 360.700 C 213.483 361.961,214.655 363.177,215.917 363.900 C 216.594 364.288,223.791 364.400,248.136 364.400 L 279.483 364.400 280.442 363.449 C 282.324 361.581,283.600 359.978,283.600 359.481 C 283.600 359.204,283.960 358.717,284.400 358.400 C 284.840 358.083,285.200 357.503,285.200 357.112 C 285.200 356.720,285.380 356.400,285.600 356.400 C 285.820 356.400,286.000 356.040,286.000 355.600 C 286.000 355.160,286.180 354.800,286.400 354.800 C 286.620 354.800,286.800 354.440,286.800 354.000 C 286.800 353.560,286.980 353.200,287.200 353.200 C 287.420 353.200,287.600 352.660,287.600 352.000 C 287.600 351.340,287.780 350.800,288.000 350.800 C 288.220 350.800,288.400 350.260,288.400 349.600 C 288.400 348.940,288.580 348.400,288.800 348.400 C 289.020 348.400,289.200 347.680,289.200 346.800 C 289.200 345.920,289.380 345.200,289.600 345.200 C 289.829 345.200,290.000 344.000,290.000 342.400 C 290.000 340.800,290.171 339.600,290.400 339.600 C 290.653 339.600,290.800 336.667,290.800 331.600 C 290.800 326.533,290.653 323.600,290.400 323.600 C 290.175 323.600,290.000 322.475,290.000 321.024 C 290.000 319.607,289.820 318.336,289.600 318.200 C 289.380 318.064,289.200 317.243,289.200 316.376 C 289.200 315.509,289.020 314.800,288.800 314.800 C 288.580 314.800,288.400 314.260,288.400 313.600 C 288.400 312.940,288.220 312.400,288.000 312.400 C 287.780 312.400,287.600 311.860,287.600 311.200 C 287.600 310.540,287.420 310.000,287.200 310.000 C 286.980 310.000,286.800 309.640,286.800 309.200 C 286.800 308.760,286.620 308.400,286.400 308.400 C 286.180 308.400,286.000 308.040,286.000 307.600 C 286.000 307.160,285.820 306.800,285.600 306.800 C 285.380 306.800,285.200 306.440,285.200 306.000 C 285.200 305.560,285.020 305.200,284.800 305.200 C 284.580 305.200,284.400 304.964,284.400 304.675 C 284.400 304.387,284.040 303.764,283.600 303.292 C 283.160 302.820,282.800 302.291,282.800 302.117 C 282.799 301.498,280.897 299.600,280.277 299.600 C 279.931 299.600,279.536 299.420,279.400 299.200 C 279.238 298.938,268.194 298.810,247.476 298.829 L 215.800 298.858 214.100 300.620 M294.000 299.914 C 294.000 300.717,294.321 301.217,295.152 301.708 C 295.785 302.082,297.164 303.201,298.216 304.194 C 299.267 305.187,300.296 306.000,300.503 306.000 C 300.710 306.000,301.356 306.502,301.940 307.115 C 302.523 307.729,303.630 308.665,304.400 309.196 C 305.170 309.728,306.070 310.449,306.400 310.800 C 306.730 311.151,307.630 311.878,308.400 312.416 C 309.170 312.954,310.519 314.070,311.398 314.897 C 312.277 315.724,313.140 316.400,313.316 316.400 C 313.492 316.400,314.074 316.838,314.609 317.373 C 315.144 317.908,316.261 318.851,317.091 319.468 C 317.921 320.086,318.870 320.872,319.200 321.215 C 319.530 321.557,320.430 322.271,321.200 322.800 C 321.970 323.329,322.870 324.049,323.200 324.400 C 323.530 324.751,324.430 325.478,325.200 326.016 C 325.970 326.554,327.319 327.670,328.198 328.497 C 329.077 329.324,329.944 330.000,330.126 330.000 C 330.613 330.000,331.600 331.071,331.600 331.600 C 331.600 332.192,330.590 333.200,329.997 333.200 C 329.744 333.200,328.846 333.920,328.000 334.800 C 327.154 335.680,326.290 336.400,326.080 336.400 C 325.869 336.400,324.955 337.120,324.048 338.000 C 323.141 338.880,322.241 339.600,322.048 339.600 C 321.855 339.600,320.955 340.320,320.048 341.200 C 319.141 342.080,318.238 342.800,318.040 342.800 C 317.843 342.800,316.762 343.700,315.639 344.800 C 314.515 345.900,313.403 346.800,313.167 346.800 C 312.930 346.800,312.046 347.520,311.200 348.400 C 310.354 349.280,309.490 350.000,309.280 350.000 C 309.069 350.000,308.155 350.720,307.248 351.600 C 306.341 352.480,305.438 353.200,305.240 353.200 C 305.043 353.200,303.962 354.100,302.839 355.200 C 301.715 356.300,300.603 357.200,300.367 357.200 C 300.130 357.200,299.246 357.920,298.400 358.800 C 297.554 359.680,296.714 360.400,296.531 360.400 C 295.930 360.401,294.000 362.282,294.000 362.867 C 294.000 364.266,294.827 364.400,303.485 364.400 C 311.562 364.400,313.045 364.228,314.000 363.181 C 314.110 363.060,314.830 362.521,315.600 361.983 C 316.370 361.444,317.697 360.328,318.548 359.502 C 319.400 358.676,320.273 358.000,320.488 358.000 C 320.703 358.000,321.356 357.498,321.940 356.885 C 322.523 356.271,323.630 355.335,324.400 354.804 C 325.170 354.272,326.070 353.551,326.400 353.200 C 326.730 352.849,327.630 352.128,328.400 351.596 C 329.170 351.065,330.250 350.167,330.800 349.600 C 331.350 349.033,332.430 348.135,333.200 347.604 C 333.970 347.072,334.870 346.351,335.200 346.000 C 335.530 345.649,336.430 344.929,337.200 344.400 C 337.970 343.871,338.870 343.151,339.200 342.800 C 341.246 340.624,342.962 340.018,343.953 341.119 C 344.309 341.514,345.230 342.271,346.000 342.800 C 346.770 343.329,347.670 344.049,348.000 344.400 C 348.330 344.751,349.230 345.471,350.000 346.000 C 350.770 346.529,351.670 347.249,352.000 347.600 C 352.330 347.951,353.230 348.671,354.000 349.200 C 354.770 349.729,355.670 350.449,356.000 350.800 C 356.330 351.151,357.230 351.872,358.000 352.404 C 358.770 352.935,359.877 353.871,360.460 354.485 C 361.044 355.098,361.675 355.600,361.863 355.600 C 362.051 355.600,362.923 356.276,363.802 357.103 C 364.681 357.930,366.030 359.046,366.800 359.584 C 367.570 360.122,368.470 360.852,368.800 361.206 C 369.130 361.560,370.242 362.424,371.272 363.125 L 373.144 364.400 381.492 364.400 C 389.951 364.400,390.800 364.261,390.800 362.880 C 390.800 362.276,387.311 358.800,386.705 358.800 C 386.503 358.800,385.646 358.080,384.800 357.200 C 383.954 356.320,383.070 355.600,382.833 355.600 C 382.597 355.600,381.485 354.700,380.361 353.600 C 379.238 352.500,378.157 351.600,377.960 351.600 C 377.762 351.600,376.859 350.880,375.952 350.000 C 375.045 349.120,374.131 348.400,373.920 348.400 C 373.710 348.400,372.846 347.680,372.000 346.800 C 371.154 345.920,370.270 345.200,370.033 345.200 C 369.797 345.200,368.685 344.300,367.561 343.200 C 366.438 342.100,365.343 341.200,365.128 341.200 C 364.913 341.200,364.046 340.480,363.200 339.600 C 362.354 338.720,361.470 338.000,361.233 338.000 C 360.997 338.000,359.885 337.100,358.761 336.000 C 357.638 334.900,356.549 334.000,356.341 334.000 C 355.814 334.000,354.000 332.132,354.000 331.590 C 354.000 331.065,354.462 330.602,356.509 329.073 C 357.339 328.453,358.419 327.549,358.909 327.064 C 359.399 326.579,360.430 325.745,361.200 325.210 C 361.970 324.675,362.870 323.957,363.200 323.615 C 363.530 323.272,364.479 322.486,365.309 321.868 C 366.139 321.251,367.219 320.349,367.709 319.864 C 368.199 319.379,369.230 318.545,370.000 318.010 C 370.770 317.475,371.670 316.757,372.000 316.415 C 372.330 316.072,373.279 315.286,374.109 314.668 C 374.939 314.051,376.019 313.149,376.509 312.664 C 376.999 312.179,378.030 311.345,378.800 310.810 C 379.570 310.275,380.470 309.551,380.800 309.200 C 381.130 308.849,382.030 308.128,382.800 307.596 C 383.570 307.065,384.650 306.167,385.200 305.600 C 385.750 305.033,386.830 304.130,387.600 303.593 C 389.854 302.022,390.800 300.906,390.800 299.818 L 390.800 298.800 381.600 298.800 C 375.733 298.800,372.400 298.945,372.400 299.200 C 372.400 299.420,372.152 299.600,371.848 299.600 C 371.545 299.600,370.555 300.320,369.648 301.200 C 368.741 302.080,367.838 302.800,367.640 302.800 C 367.443 302.800,366.362 303.700,365.239 304.800 C 364.115 305.900,363.003 306.800,362.767 306.800 C 362.530 306.800,361.646 307.520,360.800 308.400 C 359.954 309.280,359.090 310.000,358.880 310.000 C 358.669 310.000,357.755 310.720,356.848 311.600 C 355.941 312.480,355.041 313.200,354.848 313.200 C 354.655 313.200,353.755 313.920,352.848 314.800 C 351.941 315.680,351.038 316.400,350.840 316.400 C 350.643 316.400,349.562 317.300,348.439 318.400 C 347.315 319.500,346.199 320.400,345.958 320.400 C 345.718 320.400,345.017 320.940,344.400 321.600 C 343.349 322.725,342.000 323.212,342.000 322.468 C 342.000 322.285,341.505 321.880,340.900 321.568 C 340.295 321.255,339.139 320.325,338.331 319.500 C 337.524 318.675,336.670 318.000,336.433 318.000 C 336.197 318.000,335.085 317.100,333.961 316.000 C 332.838 314.900,331.757 314.000,331.560 314.000 C 331.362 314.000,330.459 313.280,329.552 312.400 C 328.645 311.520,327.745 310.800,327.552 310.800 C 327.359 310.800,326.459 310.080,325.552 309.200 C 324.645 308.320,323.731 307.600,323.520 307.600 C 323.310 307.600,322.446 306.880,321.600 306.000 C 320.754 305.120,319.870 304.400,319.633 304.400 C 319.397 304.400,318.285 303.500,317.161 302.400 C 316.038 301.300,314.907 300.400,314.648 300.400 C 314.389 300.400,313.917 300.040,313.600 299.600 C 313.051 298.839,312.565 298.800,303.512 298.800 L 294.000 298.800 294.000 299.914 M22.300 299.498 C 20.155 299.570,16.645 299.570,14.500 299.498 C 12.355 299.426,14.110 299.367,18.400 299.367 C 22.690 299.367,24.445 299.426,22.300 299.498 M167.500 299.500 C 158.975 299.560,145.025 299.560,136.500 299.500 C 127.975 299.440,134.950 299.390,152.000 299.390 C 169.050 299.390,176.025 299.440,167.500 299.500 M238.900 299.499 C 234.885 299.565,228.315 299.565,224.300 299.499 C 220.285 299.434,223.570 299.381,231.600 299.381 C 239.630 299.381,242.915 299.434,238.900 299.499 M177.429 312.171 C 177.743 312.486,178.000 313.026,178.000 313.371 C 178.000 313.717,178.180 314.000,178.400 314.000 C 178.620 314.000,178.800 314.360,178.800 314.800 C 178.800 315.240,178.980 315.600,179.200 315.600 C 179.420 315.600,179.600 315.949,179.600 316.376 C 179.600 316.803,179.780 317.264,180.000 317.400 C 180.220 317.536,180.400 318.087,180.400 318.624 C 180.400 319.161,180.580 319.600,180.800 319.600 C 181.020 319.600,181.200 320.129,181.200 320.776 C 181.200 321.423,181.380 322.064,181.600 322.200 C 181.820 322.336,182.000 323.067,182.000 323.824 L 182.000 325.200 152.400 325.200 L 122.800 325.200 122.800 324.024 C 122.800 323.377,122.980 322.736,123.200 322.600 C 123.420 322.464,123.600 321.733,123.600 320.976 C 123.600 320.219,123.780 319.600,124.000 319.600 C 124.220 319.600,124.400 319.060,124.400 318.400 C 124.400 317.740,124.580 317.200,124.800 317.200 C 125.020 317.200,125.200 316.761,125.200 316.224 C 125.200 315.687,125.380 315.136,125.600 315.000 C 125.820 314.864,126.000 314.403,126.000 313.976 C 126.000 313.549,126.180 313.200,126.400 313.200 C 126.620 313.200,126.800 312.840,126.800 312.400 C 126.800 311.339,176.372 311.115,177.429 312.171 M273.200 312.400 C 273.200 312.840,273.380 313.200,273.600 313.200 C 273.820 313.200,274.000 313.560,274.000 314.000 C 274.000 314.440,274.180 314.800,274.400 314.800 C 274.620 314.800,274.800 315.160,274.800 315.600 C 274.800 316.040,274.980 316.400,275.200 316.400 C 275.420 316.400,275.600 316.749,275.600 317.176 C 275.600 317.603,275.780 318.064,276.000 318.200 C 276.220 318.336,276.400 318.876,276.400 319.400 C 276.400 319.924,276.580 320.464,276.800 320.600 C 277.020 320.736,277.200 321.456,277.200 322.200 C 277.200 322.944,277.380 323.664,277.600 323.800 C 277.820 323.936,278.000 325.441,278.000 327.144 C 278.000 329.071,278.189 330.440,278.500 330.770 C 278.900 331.194,278.900 331.337,278.500 331.483 C 278.158 331.609,278.000 332.664,278.000 334.833 C 278.000 336.678,277.833 338.000,277.600 338.000 C 277.380 338.000,277.200 338.720,277.200 339.600 C 277.200 340.480,277.020 341.200,276.800 341.200 C 276.580 341.200,276.400 341.729,276.400 342.376 C 276.400 343.023,276.220 343.664,276.000 343.800 C 275.780 343.936,275.600 344.476,275.600 345.000 C 275.600 345.524,275.420 346.064,275.200 346.200 C 274.980 346.336,274.800 346.887,274.800 347.424 C 274.800 347.961,274.620 348.400,274.400 348.400 C 274.180 348.400,274.000 348.760,274.000 349.200 C 274.000 349.640,273.820 350.000,273.600 350.000 C 273.380 350.000,273.200 350.360,273.200 350.800 C 273.200 351.591,272.933 351.600,248.171 351.600 C 221.702 351.600,222.000 351.620,222.000 349.829 C 222.000 349.483,221.820 349.200,221.600 349.200 C 221.380 349.200,221.200 348.840,221.200 348.400 C 221.200 347.960,221.020 347.600,220.800 347.600 C 220.580 347.600,220.400 347.161,220.400 346.624 C 220.400 346.087,220.220 345.536,220.000 345.400 C 219.780 345.264,219.600 344.724,219.600 344.200 C 219.600 343.676,219.420 343.136,219.200 343.000 C 218.980 342.864,218.800 342.223,218.800 341.576 C 218.800 340.929,218.620 340.400,218.400 340.400 C 218.180 340.400,218.000 339.680,218.000 338.800 C 218.000 337.920,217.820 337.200,217.600 337.200 C 217.353 337.200,217.200 335.141,217.200 331.824 C 217.200 328.671,217.365 326.345,217.600 326.200 C 217.820 326.064,218.000 325.243,218.000 324.376 C 218.000 323.509,218.180 322.800,218.400 322.800 C 218.620 322.800,218.800 322.181,218.800 321.424 C 218.800 320.667,218.980 319.936,219.200 319.800 C 219.420 319.664,219.600 319.124,219.600 318.600 C 219.600 318.076,219.780 317.536,220.000 317.400 C 220.220 317.264,220.400 316.818,220.400 316.410 C 220.400 316.001,220.578 315.607,220.797 315.533 C 221.015 315.460,221.233 314.918,221.281 314.329 C 221.330 313.740,221.512 313.345,221.685 313.452 C 221.858 313.560,222.000 313.449,222.000 313.207 C 222.000 311.630,221.986 311.631,248.100 311.615 C 272.938 311.600,273.200 311.608,273.200 312.400 M182.000 338.776 C 182.000 339.203,181.820 339.664,181.600 339.800 C 181.380 339.936,181.200 340.667,181.200 341.424 C 181.200 342.181,181.020 342.800,180.800 342.800 C 180.580 342.800,180.400 343.340,180.400 344.000 C 180.400 344.660,180.220 345.200,180.000 345.200 C 179.780 345.200,179.600 345.740,179.600 346.400 C 179.600 347.060,179.420 347.600,179.200 347.600 C 178.980 347.600,178.800 347.834,178.800 348.120 C 178.800 348.856,177.859 350.793,177.500 350.797 C 177.335 350.799,177.200 351.160,177.200 351.600 C 177.200 352.391,176.934 352.400,152.500 352.397 L 127.800 352.394 127.300 351.317 C 127.025 350.725,126.800 350.006,126.800 349.720 C 126.800 349.434,126.620 349.200,126.400 349.200 C 126.180 349.200,126.000 348.840,126.000 348.400 C 126.000 347.960,125.820 347.600,125.600 347.600 C 125.380 347.600,125.200 347.161,125.200 346.624 C 125.200 346.087,125.020 345.536,124.800 345.400 C 124.580 345.264,124.400 344.803,124.400 344.376 C 124.400 343.949,124.220 343.600,124.000 343.600 C 123.780 343.600,123.600 343.240,123.600 342.800 C 123.600 342.360,123.420 342.000,123.200 342.000 C 122.980 342.000,122.800 341.280,122.800 340.400 C 122.800 339.520,122.620 338.800,122.400 338.800 C 122.180 338.800,122.000 338.620,122.000 338.400 C 122.000 338.137,132.267 338.000,152.000 338.000 C 181.429 338.000,182.000 338.015,182.000 338.776 M22.500 363.898 C 20.245 363.970,16.555 363.970,14.300 363.898 C 12.045 363.827,13.890 363.769,18.400 363.769 C 22.910 363.769,24.755 363.827,22.500 363.898 M100.500 363.899 C 98.025 363.969,93.975 363.969,91.500 363.899 C 89.025 363.828,91.050 363.771,96.000 363.771 C 100.950 363.771,102.975 363.828,100.500 363.899 M263.700 363.900 C 255.065 363.960,240.935 363.960,232.300 363.900 C 223.665 363.840,230.730 363.790,248.000 363.790 C 265.270 363.790,272.335 363.840,263.700 363.900 M307.900 363.898 C 305.535 363.969,301.665 363.969,299.300 363.898 C 296.935 363.828,298.870 363.770,303.600 363.770 C 308.330 363.770,310.265 363.828,307.900 363.898 M385.500 363.898 C 383.135 363.969,379.265 363.969,376.900 363.898 C 374.535 363.828,376.470 363.770,381.200 363.770 C 385.930 363.770,387.865 363.828,385.500 363.898 " stroke="none" fill="#242424" fill-rule="evenodd"></path><path id="path1" d="M139.200 100.127 C 139.200 100.289,140.010 101.231,141.000 102.221 C 141.990 103.211,142.800 103.874,142.800 103.694 C 142.800 103.514,141.990 102.572,141.000 101.600 C 140.010 100.628,139.200 99.966,139.200 100.127 M14.500 299.498 C 16.645 299.570,20.155 299.570,22.300 299.498 C 24.445 299.426,22.690 299.367,18.400 299.367 C 14.110 299.367,12.355 299.426,14.500 299.498 M136.500 299.500 C 145.025 299.560,158.975 299.560,167.500 299.500 C 176.025 299.440,169.050 299.390,152.000 299.390 C 134.950 299.390,127.975 299.440,136.500 299.500 M224.300 299.499 C 228.315 299.565,234.885 299.565,238.900 299.499 C 242.915 299.434,239.630 299.381,231.600 299.381 C 223.570 299.381,220.285 299.434,224.300 299.499 M14.300 363.898 C 16.555 363.970,20.245 363.970,22.500 363.898 C 24.755 363.827,22.910 363.769,18.400 363.769 C 13.890 363.769,12.045 363.827,14.300 363.898 M91.500 363.899 C 93.975 363.969,98.025 363.969,100.500 363.899 C 102.975 363.828,100.950 363.771,96.000 363.771 C 91.050 363.771,89.025 363.828,91.500 363.899 M232.300 363.900 C 240.935 363.960,255.065 363.960,263.700 363.900 C 272.335 363.840,265.270 363.790,248.000 363.790 C 230.730 363.790,223.665 363.840,232.300 363.900 M299.300 363.898 C 301.665 363.969,305.535 363.969,307.900 363.898 C 310.265 363.828,308.330 363.770,303.600 363.770 C 298.870 363.770,296.935 363.828,299.300 363.898 M376.900 363.898 C 379.265 363.969,383.135 363.969,385.500 363.898 C 387.865 363.828,385.930 363.770,381.200 363.770 C 376.470 363.770,374.535 363.828,376.900 363.898 " stroke="none" fill="#282424" fill-rule="evenodd"></path><path id="path2" d="M139.200 100.127 C 139.200 100.289,140.010 101.231,141.000 102.221 C 141.990 103.211,142.800 103.874,142.800 103.694 C 142.800 103.514,141.990 102.572,141.000 101.600 C 140.010 100.628,139.200 99.966,139.200 100.127 M14.500 299.498 C 16.645 299.570,20.155 299.570,22.300 299.498 C 24.445 299.426,22.690 299.367,18.400 299.367 C 14.110 299.367,12.355 299.426,14.500 299.498 M136.500 299.500 C 145.025 299.560,158.975 299.560,167.500 299.500 C 176.025 299.440,169.050 299.390,152.000 299.390 C 134.950 299.390,127.975 299.440,136.500 299.500 M224.300 299.499 C 228.315 299.565,234.885 299.565,238.900 299.499 C 242.915 299.434,239.630 299.381,231.600 299.381 C 223.570 299.381,220.285 299.434,224.300 299.499 M14.300 363.898 C 16.555 363.970,20.245 363.970,22.500 363.898 C 24.755 363.827,22.910 363.769,18.400 363.769 C 13.890 363.769,12.045 363.827,14.300 363.898 M91.500 363.899 C 93.975 363.969,98.025 363.969,100.500 363.899 C 102.975 363.828,100.950 363.771,96.000 363.771 C 91.050 363.771,89.025 363.828,91.500 363.899 M232.300 363.900 C 240.935 363.960,255.065 363.960,263.700 363.900 C 272.335 363.840,265.270 363.790,248.000 363.790 C 230.730 363.790,223.665 363.840,232.300 363.900 M299.300 363.898 C 301.665 363.969,305.535 363.969,307.900 363.898 C 310.265 363.828,308.330 363.770,303.600 363.770 C 298.870 363.770,296.935 363.828,299.300 363.898 M376.900 363.898 C 379.265 363.969,383.135 363.969,385.500 363.898 C 387.865 363.828,385.930 363.770,381.200 363.770 C 376.470 363.770,374.535 363.828,376.900 363.898 " stroke="none" fill="#282424" fill-rule="evenodd"></path><path id="path3" d="M139.200 100.127 C 139.200 100.289,140.010 101.231,141.000 102.221 C 141.990 103.211,142.800 103.874,142.800 103.694 C 142.800 103.514,141.990 102.572,141.000 101.600 C 140.010 100.628,139.200 99.966,139.200 100.127 M14.500 299.498 C 16.645 299.570,20.155 299.570,22.300 299.498 C 24.445 299.426,22.690 299.367,18.400 299.367 C 14.110 299.367,12.355 299.426,14.500 299.498 M136.500 299.500 C 145.025 299.560,158.975 299.560,167.500 299.500 C 176.025 299.440,169.050 299.390,152.000 299.390 C 134.950 299.390,127.975 299.440,136.500 299.500 M224.300 299.499 C 228.315 299.565,234.885 299.565,238.900 299.499 C 242.915 299.434,239.630 299.381,231.600 299.381 C 223.570 299.381,220.285 299.434,224.300 299.499 M14.300 363.898 C 16.555 363.970,20.245 363.970,22.500 363.898 C 24.755 363.827,22.910 363.769,18.400 363.769 C 13.890 363.769,12.045 363.827,14.300 363.898 M91.500 363.899 C 93.975 363.969,98.025 363.969,100.500 363.899 C 102.975 363.828,100.950 363.771,96.000 363.771 C 91.050 363.771,89.025 363.828,91.500 363.899 M232.300 363.900 C 240.935 363.960,255.065 363.960,263.700 363.900 C 272.335 363.840,265.270 363.790,248.000 363.790 C 230.730 363.790,223.665 363.840,232.300 363.900 M299.300 363.898 C 301.665 363.969,305.535 363.969,307.900 363.898 C 310.265 363.828,308.330 363.770,303.600 363.770 C 298.870 363.770,296.935 363.828,299.300 363.898 M376.900 363.898 C 379.265 363.969,383.135 363.969,385.500 363.898 C 387.865 363.828,385.930 363.770,381.200 363.770 C 376.470 363.770,374.535 363.828,376.900 363.898 " stroke="none" fill="#282424" fill-rule="evenodd"></path><path id="path4" d="M139.200 100.127 C 139.200 100.289,140.010 101.231,141.000 102.221 C 141.990 103.211,142.800 103.874,142.800 103.694 C 142.800 103.514,141.990 102.572,141.000 101.600 C 140.010 100.628,139.200 99.966,139.200 100.127 M14.500 299.498 C 16.645 299.570,20.155 299.570,22.300 299.498 C 24.445 299.426,22.690 299.367,18.400 299.367 C 14.110 299.367,12.355 299.426,14.500 299.498 M136.500 299.500 C 145.025 299.560,158.975 299.560,167.500 299.500 C 176.025 299.440,169.050 299.390,152.000 299.390 C 134.950 299.390,127.975 299.440,136.500 299.500 M224.300 299.499 C 228.315 299.565,234.885 299.565,238.900 299.499 C 242.915 299.434,239.630 299.381,231.600 299.381 C 223.570 299.381,220.285 299.434,224.300 299.499 M14.300 363.898 C 16.555 363.970,20.245 363.970,22.500 363.898 C 24.755 363.827,22.910 363.769,18.400 363.769 C 13.890 363.769,12.045 363.827,14.300 363.898 M91.500 363.899 C 93.975 363.969,98.025 363.969,100.500 363.899 C 102.975 363.828,100.950 363.771,96.000 363.771 C 91.050 363.771,89.025 363.828,91.500 363.899 M232.300 363.900 C 240.935 363.960,255.065 363.960,263.700 363.900 C 272.335 363.840,265.270 363.790,248.000 363.790 C 230.730 363.790,223.665 363.840,232.300 363.900 M299.300 363.898 C 301.665 363.969,305.535 363.969,307.900 363.898 C 310.265 363.828,308.330 363.770,303.600 363.770 C 298.870 363.770,296.935 363.828,299.300 363.898 M376.900 363.898 C 379.265 363.969,383.135 363.969,385.500 363.898 C 387.865 363.828,385.930 363.770,381.200 363.770 C 376.470 363.770,374.535 363.828,376.900 363.898 " stroke="none" fill="#282424" fill-rule="evenodd"></path></g></svg>